<svg xmlns="http://www.w3.org/2000/svg" xmlns:xlink="http://www.w3.org/1999/xlink" width="256" zoomAndPan="magnify" viewBox="0 0 192 95.999999" height="128" preserveAspectRatio="xMidYMid meet" version="1.0"><defs><g/><clipPath id="af528df501"><path d="M 21 35 L 50 35 L 50 82 L 21 82 Z M 21 35 " clip-rule="nonzero"/></clipPath><clipPath id="9cfde91f4f"><path d="M 39.109375 85.714844 L 11.664062 58.269531 L 41.96875 27.96875 L 69.414062 55.410156 Z M 39.109375 85.714844 " clip-rule="nonzero"/></clipPath><clipPath id="31f0e99745"><path d="M 39.109375 85.714844 L 11.664062 58.269531 L 41.96875 27.96875 L 69.414062 55.410156 Z M 39.109375 85.714844 " clip-rule="nonzero"/></clipPath><clipPath id="ad9ce26d9a"><path d="M 33.335938 47.945312 C 32.824219 48.453125 32.355469 49 31.929688 49.578125 C 31.5 50.15625 31.113281 50.761719 30.777344 51.398438 C 30.4375 52.035156 30.148438 52.691406 29.90625 53.371094 C 29.664062 54.050781 29.472656 54.746094 29.332031 55.453125 C 29.195312 56.160156 29.105469 56.875 29.074219 57.597656 C 29.039062 58.316406 29.058594 59.035156 29.128906 59.753906 C 29.203125 60.472656 29.328125 61.183594 29.503906 61.882812 C 29.679688 62.585938 29.910156 63.269531 30.1875 63.9375 C 30.464844 64.605469 30.789062 65.25 31.160156 65.867188 C 31.535156 66.488281 31.949219 67.078125 32.410156 67.636719 C 32.867188 68.195312 33.367188 68.71875 33.902344 69.203125 C 34.4375 69.691406 35.007812 70.132812 35.605469 70.535156 C 36.207031 70.9375 36.835938 71.296875 37.488281 71.605469 C 38.140625 71.914062 38.816406 72.175781 39.507812 72.386719 C 40.195312 72.597656 40.898438 72.757812 41.613281 72.863281 C 42.328125 72.972656 43.046875 73.027344 43.769531 73.027344 L 43.765625 71.964844 C 42.871094 71.960938 41.984375 71.871094 41.109375 71.695312 C 40.230469 71.519531 39.378906 71.257812 38.550781 70.914062 C 37.726562 70.570312 36.941406 70.148438 36.195312 69.652344 C 35.449219 69.152344 34.761719 68.585938 34.128906 67.953125 C 33.496094 67.320312 32.929688 66.628906 32.429688 65.886719 C 31.933594 65.140625 31.511719 64.355469 31.167969 63.527344 C 30.824219 62.699219 30.5625 61.847656 30.386719 60.972656 C 30.210938 60.09375 30.125 59.207031 30.121094 58.3125 C 30.121094 57.417969 30.207031 56.535156 30.378906 55.65625 C 30.550781 54.78125 30.808594 53.929688 31.148438 53.105469 C 31.488281 52.28125 31.90625 51.496094 32.402344 50.753906 C 32.898438 50.011719 33.460938 49.324219 34.09375 48.695312 C 34.722656 48.0625 35.410156 47.5 36.152344 47.003906 C 36.894531 46.507812 37.679688 46.089844 38.503906 45.75 C 39.328125 45.410156 40.179688 45.15625 41.058594 44.980469 C 41.933594 44.808594 42.820312 44.722656 43.714844 44.726562 L 49.722656 44.738281 L 49.71875 43.675781 L 43.710938 43.671875 C 41.761719 43.660156 39.890625 44.027344 38.089844 44.765625 C 36.292969 45.507812 34.707031 46.566406 33.335938 47.945312 Z M 37.109375 51.71875 C 36.457031 52.371094 35.914062 53.105469 35.480469 53.921875 C 35.046875 54.734375 34.738281 55.597656 34.5625 56.503906 C 34.382812 57.410156 34.339844 58.324219 34.433594 59.246094 C 34.523438 60.164062 34.75 61.050781 35.105469 61.90625 C 35.460938 62.761719 35.933594 63.550781 36.519531 64.265625 C 37.109375 64.980469 37.789062 65.597656 38.558594 66.113281 C 39.328125 66.628906 40.15625 67.019531 41.042969 67.292969 C 41.925781 67.5625 42.832031 67.699219 43.757812 67.699219 L 43.753906 66.636719 C 43.210938 66.632812 42.671875 66.582031 42.136719 66.472656 C 41.601562 66.367188 41.082031 66.207031 40.582031 66 C 40.078125 65.789062 39.597656 65.53125 39.144531 65.230469 C 38.691406 64.925781 38.273438 64.582031 37.886719 64.195312 C 37.5 63.8125 37.15625 63.390625 36.851562 62.9375 C 36.550781 62.484375 36.292969 62.007812 36.082031 61.503906 C 35.875 61 35.714844 60.480469 35.609375 59.945312 C 35.5 59.414062 35.445312 58.875 35.445312 58.328125 C 35.445312 57.785156 35.496094 57.246094 35.601562 56.710938 C 35.707031 56.179688 35.863281 55.660156 36.070312 55.15625 C 36.277344 54.65625 36.53125 54.179688 36.835938 53.726562 C 37.136719 53.273438 37.480469 52.855469 37.863281 52.472656 C 38.246094 52.089844 38.664062 51.746094 39.117188 51.445312 C 39.570312 51.144531 40.046875 50.886719 40.550781 50.679688 C 41.050781 50.472656 41.570312 50.316406 42.105469 50.214844 C 42.636719 50.109375 43.175781 50.058594 43.722656 50.058594 L 49.738281 50.070312 L 49.734375 49.007812 L 43.71875 48.996094 C 42.476562 48.988281 41.285156 49.222656 40.136719 49.695312 C 38.992188 50.167969 37.984375 50.84375 37.109375 51.71875 Z M 35.21875 49.828125 C 34.382812 50.667969 33.683594 51.609375 33.128906 52.65625 C 32.570312 53.703125 32.175781 54.808594 31.945312 55.972656 C 31.71875 57.136719 31.664062 58.308594 31.78125 59.492188 C 31.902344 60.675781 32.1875 61.816406 32.644531 62.914062 C 33.101562 64.011719 33.707031 65.019531 34.460938 65.941406 C 35.21875 66.859375 36.089844 67.652344 37.078125 68.3125 C 38.066406 68.976562 39.128906 69.480469 40.265625 69.828125 C 41.402344 70.175781 42.566406 70.351562 43.753906 70.355469 L 43.761719 69.300781 C 43.050781 69.28125 42.351562 69.195312 41.660156 69.039062 C 40.96875 68.882812 40.300781 68.664062 39.648438 68.378906 C 39 68.097656 38.382812 67.753906 37.800781 67.347656 C 37.214844 66.945312 36.675781 66.488281 36.183594 65.980469 C 35.6875 65.472656 35.246094 64.921875 34.855469 64.328125 C 34.464844 63.738281 34.136719 63.113281 33.871094 62.457031 C 33.601562 61.800781 33.398438 61.125 33.261719 60.429688 C 33.125 59.734375 33.054688 59.03125 33.050781 58.324219 C 33.050781 57.617188 33.117188 56.914062 33.253906 56.21875 C 33.386719 55.527344 33.585938 54.851562 33.851562 54.195312 C 34.117188 53.539062 34.445312 52.917969 34.832031 52.324219 C 35.21875 51.734375 35.65625 51.1875 36.152344 50.679688 C 36.644531 50.175781 37.179688 49.722656 37.761719 49.320312 C 38.34375 48.917969 38.960938 48.578125 39.609375 48.296875 C 40.257812 48.015625 40.925781 47.796875 41.617188 47.644531 C 42.308594 47.492188 43.007812 47.410156 43.714844 47.394531 L 49.726562 47.40625 L 49.726562 46.34375 L 43.710938 46.332031 C 42.117188 46.324219 40.585938 46.621094 39.113281 47.230469 C 37.640625 47.835938 36.34375 48.703125 35.222656 49.832031 Z M 29.554688 44.164062 C 29.09375 44.628906 28.65625 45.113281 28.242188 45.617188 C 27.828125 46.125 27.4375 46.648438 27.074219 47.191406 C 26.714844 47.738281 26.378906 48.296875 26.070312 48.875 C 25.761719 49.453125 25.484375 50.042969 25.234375 50.648438 C 24.984375 51.253906 24.765625 51.871094 24.578125 52.496094 C 24.390625 53.125 24.230469 53.757812 24.105469 54.402344 C 23.980469 55.042969 23.882812 55.691406 23.820312 56.34375 C 23.757812 56.996094 23.730469 57.648438 23.730469 58.304688 C 23.730469 58.957031 23.765625 59.613281 23.832031 60.265625 C 23.898438 60.917969 23.996094 61.5625 24.125 62.207031 C 24.253906 62.851562 24.414062 63.484375 24.605469 64.113281 C 24.796875 64.738281 25.019531 65.355469 25.269531 65.960938 C 25.523438 66.570312 25.804688 67.160156 26.113281 67.738281 C 26.425781 68.316406 26.761719 68.878906 27.128906 69.425781 C 27.492188 69.972656 27.886719 70.496094 28.300781 71.003906 C 28.71875 71.511719 29.160156 71.996094 29.625 72.460938 C 30.550781 73.394531 31.5625 74.230469 32.65625 74.964844 C 33.75 75.699219 34.902344 76.316406 36.117188 76.824219 C 37.332031 77.328125 38.585938 77.710938 39.875 77.96875 C 41.164062 78.226562 42.464844 78.355469 43.78125 78.355469 L 43.773438 77.292969 C 43.152344 77.292969 42.535156 77.261719 41.914062 77.199219 C 41.296875 77.136719 40.683594 77.046875 40.078125 76.921875 C 39.46875 76.800781 38.867188 76.648438 38.273438 76.46875 C 37.679688 76.285156 37.09375 76.074219 36.519531 75.835938 C 35.945312 75.597656 35.386719 75.332031 34.839844 75.039062 C 34.289062 74.746094 33.757812 74.425781 33.242188 74.078125 C 32.726562 73.734375 32.226562 73.363281 31.746094 72.96875 C 31.265625 72.574219 30.804688 72.15625 30.367188 71.71875 C 29.925781 71.277344 29.507812 70.820312 29.113281 70.339844 C 28.71875 69.859375 28.351562 69.359375 28.003906 68.84375 C 27.660156 68.324219 27.339844 67.792969 27.046875 67.246094 C 26.753906 66.699219 26.484375 66.136719 26.246094 65.5625 C 26.007812 64.992188 25.796875 64.40625 25.617188 63.8125 C 25.4375 63.21875 25.285156 62.617188 25.160156 62.007812 C 25.039062 61.398438 24.945312 60.785156 24.886719 60.167969 C 24.824219 59.550781 24.792969 58.933594 24.789062 58.3125 C 24.789062 57.691406 24.816406 57.074219 24.878906 56.453125 C 24.9375 55.835938 25.027344 55.226562 25.144531 54.617188 C 25.265625 54.007812 25.414062 53.40625 25.59375 52.8125 C 25.773438 52.222656 25.980469 51.636719 26.21875 51.066406 C 26.453125 50.492188 26.71875 49.933594 27.007812 49.386719 C 27.300781 48.839844 27.617188 48.308594 27.960938 47.792969 C 28.304688 47.277344 28.671875 46.78125 29.066406 46.304688 C 29.457031 45.824219 29.875 45.367188 30.3125 44.929688 C 30.75 44.488281 31.207031 44.074219 31.6875 43.683594 C 32.164062 43.289062 32.660156 42.921875 33.175781 42.578125 C 33.691406 42.234375 34.222656 41.917969 34.769531 41.625 C 35.316406 41.335938 35.875 41.070312 36.449219 40.835938 C 37.019531 40.597656 37.605469 40.390625 38.199219 40.210938 C 38.789062 40.03125 39.390625 39.882812 40 39.761719 C 40.609375 39.644531 41.222656 39.554688 41.839844 39.496094 C 42.457031 39.433594 43.074219 39.40625 43.695312 39.40625 L 49.703125 39.414062 L 49.699219 38.351562 L 43.695312 38.339844 C 42.382812 38.332031 41.078125 38.457031 39.789062 38.707031 C 38.503906 38.960938 37.25 39.335938 36.039062 39.835938 C 34.824219 40.335938 33.671875 40.953125 32.582031 41.679688 C 31.492188 42.410156 30.484375 43.238281 29.5625 44.167969 Z M 38.992188 53.601562 C 38.527344 54.070312 38.136719 54.59375 37.828125 55.175781 C 37.515625 55.761719 37.296875 56.375 37.171875 57.023438 C 37.042969 57.671875 37.011719 58.324219 37.078125 58.984375 C 37.144531 59.644531 37.304688 60.277344 37.558594 60.890625 C 37.8125 61.5 38.152344 62.0625 38.570312 62.574219 C 38.992188 63.085938 39.476562 63.527344 40.027344 63.898438 C 40.578125 64.265625 41.171875 64.546875 41.804688 64.738281 C 42.4375 64.933594 43.085938 65.03125 43.746094 65.03125 L 43.746094 63.96875 C 43.375 63.96875 43.011719 63.929688 42.648438 63.859375 C 42.285156 63.785156 41.933594 63.679688 41.59375 63.535156 C 41.25 63.394531 40.925781 63.21875 40.617188 63.015625 C 40.3125 62.808594 40.027344 62.574219 39.765625 62.3125 C 39.503906 62.050781 39.269531 61.765625 39.0625 61.457031 C 38.859375 61.152344 38.683594 60.828125 38.542969 60.484375 C 38.398438 60.144531 38.292969 59.792969 38.21875 59.429688 C 38.144531 59.066406 38.109375 58.699219 38.109375 58.332031 C 38.109375 57.960938 38.144531 57.597656 38.214844 57.234375 C 38.285156 56.871094 38.390625 56.519531 38.53125 56.179688 C 38.671875 55.839844 38.847656 55.515625 39.050781 55.207031 C 39.253906 54.902344 39.488281 54.617188 39.75 54.355469 C 40.007812 54.097656 40.292969 53.863281 40.597656 53.660156 C 40.90625 53.453125 41.230469 53.28125 41.570312 53.140625 C 41.910156 53 42.261719 52.894531 42.625 52.824219 C 42.988281 52.753906 43.351562 52.71875 43.722656 52.71875 L 49.742188 52.738281 L 49.738281 51.675781 L 43.71875 51.660156 C 42.832031 51.65625 41.980469 51.824219 41.160156 52.160156 C 40.34375 52.5 39.621094 52.980469 38.996094 53.605469 Z M 31.445312 46.054688 C 30.84375 46.65625 30.289062 47.296875 29.78125 47.984375 C 29.273438 48.667969 28.820312 49.382812 28.417969 50.136719 C 28.019531 50.886719 27.675781 51.664062 27.390625 52.46875 C 27.101562 53.269531 26.878906 54.089844 26.710938 54.925781 C 26.546875 55.761719 26.445312 56.605469 26.40625 57.457031 C 26.363281 58.3125 26.386719 59.160156 26.472656 60.011719 C 26.558594 60.859375 26.707031 61.699219 26.914062 62.527344 C 27.125 63.355469 27.390625 64.164062 27.71875 64.953125 C 28.046875 65.742188 28.433594 66.5 28.871094 67.234375 C 29.3125 67.96875 29.804688 68.664062 30.347656 69.324219 C 30.890625 69.984375 31.476562 70.601562 32.113281 71.175781 C 32.746094 71.75 33.417969 72.273438 34.128906 72.75 C 34.839844 73.226562 35.578125 73.648438 36.351562 74.011719 C 37.125 74.378906 37.917969 74.6875 38.734375 74.9375 C 39.550781 75.183594 40.382812 75.371094 41.226562 75.5 C 42.070312 75.625 42.921875 75.691406 43.773438 75.691406 L 43.769531 74.625 C 43.242188 74.621094 42.710938 74.589844 42.183594 74.53125 C 41.65625 74.472656 41.132812 74.390625 40.613281 74.28125 C 40.09375 74.175781 39.582031 74.039062 39.074219 73.882812 C 38.570312 73.722656 38.070312 73.539062 37.582031 73.332031 C 37.09375 73.125 36.617188 72.894531 36.148438 72.640625 C 35.683594 72.386719 35.230469 72.113281 34.789062 71.8125 C 34.351562 71.515625 33.925781 71.199219 33.515625 70.859375 C 33.109375 70.519531 32.71875 70.160156 32.34375 69.785156 C 31.96875 69.40625 31.613281 69.011719 31.277344 68.597656 C 30.941406 68.1875 30.628906 67.761719 30.335938 67.316406 C 30.039062 66.875 29.769531 66.421875 29.519531 65.953125 C 29.269531 65.484375 29.042969 65.003906 28.839844 64.511719 C 28.636719 64.019531 28.460938 63.523438 28.304688 63.015625 C 28.152344 62.507812 28.023438 61.992188 27.917969 61.472656 C 27.8125 60.953125 27.734375 60.425781 27.683594 59.898438 C 27.628906 59.371094 27.601562 58.84375 27.601562 58.3125 C 27.601562 57.78125 27.625 57.253906 27.675781 56.726562 C 27.726562 56.199219 27.804688 55.675781 27.90625 55.15625 C 28.007812 54.636719 28.132812 54.121094 28.285156 53.613281 C 28.4375 53.105469 28.613281 52.609375 28.816406 52.117188 C 29.015625 51.628906 29.238281 51.148438 29.488281 50.683594 C 29.734375 50.214844 30.003906 49.761719 30.296875 49.320312 C 30.589844 48.878906 30.902344 48.453125 31.238281 48.042969 C 31.570312 47.628906 31.921875 47.238281 32.296875 46.863281 C 32.667969 46.484375 33.058594 46.128906 33.464844 45.792969 C 33.875 45.453125 34.296875 45.136719 34.734375 44.839844 C 35.171875 44.546875 35.625 44.273438 36.089844 44.019531 C 36.554688 43.769531 37.035156 43.539062 37.519531 43.335938 C 38.007812 43.128906 38.507812 42.949219 39.011719 42.792969 C 39.519531 42.636719 40.03125 42.503906 40.550781 42.398438 C 41.070312 42.292969 41.589844 42.210938 42.117188 42.15625 C 42.644531 42.101562 43.175781 42.070312 43.703125 42.066406 L 49.710938 42.082031 L 49.707031 41.015625 L 43.699219 41.003906 C 41.398438 40.992188 39.1875 41.425781 37.0625 42.300781 C 34.9375 43.175781 33.066406 44.429688 31.449219 46.058594 Z M 21.066406 58.300781 C 21.066406 59.042969 21.105469 59.78125 21.179688 60.519531 C 21.253906 61.261719 21.363281 61.996094 21.511719 62.722656 C 21.65625 63.453125 21.839844 64.171875 22.054688 64.882812 C 22.273438 65.59375 22.523438 66.292969 22.808594 66.980469 C 23.09375 67.664062 23.414062 68.335938 23.765625 68.992188 C 24.117188 69.648438 24.5 70.285156 24.914062 70.902344 C 25.328125 71.519531 25.769531 72.117188 26.242188 72.691406 C 26.714844 73.269531 27.214844 73.820312 27.738281 74.34375 C 28.265625 74.871094 28.816406 75.371094 29.390625 75.84375 C 29.964844 76.316406 30.5625 76.757812 31.179688 77.171875 C 31.800781 77.585938 32.4375 77.96875 33.09375 78.320312 C 33.746094 78.671875 34.417969 78.988281 35.105469 79.273438 C 35.792969 79.558594 36.492188 79.8125 37.203125 80.027344 C 37.914062 80.246094 38.632812 80.425781 39.363281 80.574219 C 40.089844 80.71875 40.824219 80.832031 41.5625 80.90625 C 42.300781 80.980469 43.042969 81.015625 43.785156 81.019531 L 43.78125 79.953125 C 43.074219 79.953125 42.367188 79.917969 41.664062 79.847656 C 40.960938 79.773438 40.261719 79.671875 39.566406 79.53125 C 38.871094 79.390625 38.1875 79.21875 37.507812 79.011719 C 36.832031 78.804688 36.164062 78.566406 35.511719 78.292969 C 34.855469 78.019531 34.214844 77.71875 33.589844 77.382812 C 32.964844 77.046875 32.359375 76.683594 31.769531 76.289062 C 31.179688 75.894531 30.613281 75.472656 30.0625 75.023438 C 29.515625 74.570312 28.992188 74.097656 28.488281 73.59375 C 27.988281 73.09375 27.511719 72.566406 27.0625 72.019531 C 26.613281 71.472656 26.191406 70.902344 25.796875 70.3125 C 25.402344 69.726562 25.039062 69.117188 24.703125 68.492188 C 24.367188 67.867188 24.0625 67.230469 23.792969 66.574219 C 23.519531 65.921875 23.28125 65.253906 23.074219 64.578125 C 22.867188 63.898438 22.695312 63.210938 22.554688 62.519531 C 22.414062 61.824219 22.308594 61.125 22.238281 60.421875 C 22.167969 59.714844 22.132812 59.011719 22.128906 58.300781 C 22.128906 57.59375 22.160156 56.886719 22.230469 56.183594 C 22.296875 55.480469 22.398438 54.78125 22.535156 54.085938 C 22.671875 53.394531 22.84375 52.707031 23.046875 52.03125 C 23.25 51.355469 23.488281 50.691406 23.757812 50.035156 C 24.027344 49.382812 24.328125 48.746094 24.660156 48.121094 C 24.992188 47.496094 25.355469 46.890625 25.746094 46.304688 C 26.136719 45.71875 26.558594 45.148438 27.007812 44.605469 C 27.453125 44.058594 27.925781 43.535156 28.425781 43.035156 C 28.925781 42.535156 29.449219 42.0625 29.996094 41.613281 C 30.542969 41.167969 31.109375 40.746094 31.695312 40.355469 C 32.285156 39.964844 32.890625 39.601562 33.511719 39.269531 C 34.136719 38.9375 34.773438 38.636719 35.425781 38.367188 C 36.082031 38.097656 36.746094 37.859375 37.421875 37.65625 C 38.097656 37.453125 38.785156 37.28125 39.476562 37.144531 C 40.171875 37.007812 40.871094 36.90625 41.574219 36.839844 C 42.28125 36.769531 42.984375 36.738281 43.691406 36.738281 L 49.691406 36.75 L 49.6875 35.6875 L 43.691406 35.675781 C 42.949219 35.675781 42.207031 35.707031 41.46875 35.78125 C 40.730469 35.851562 39.996094 35.957031 39.269531 36.101562 C 38.539062 36.246094 37.820312 36.425781 37.109375 36.636719 C 36.402344 36.851562 35.703125 37.101562 35.019531 37.382812 C 34.332031 37.667969 33.664062 37.980469 33.007812 38.332031 C 32.355469 38.679688 31.71875 39.058594 31.101562 39.46875 C 30.488281 39.882812 29.890625 40.320312 29.320312 40.792969 C 28.746094 41.261719 28.195312 41.757812 27.671875 42.28125 C 27.148438 42.804688 26.652344 43.355469 26.183594 43.925781 C 25.710938 44.5 25.273438 45.09375 24.859375 45.710938 C 24.449219 46.328125 24.070312 46.964844 23.722656 47.617188 C 23.371094 48.273438 23.058594 48.941406 22.773438 49.625 C 22.492188 50.3125 22.242188 51.011719 22.027344 51.71875 C 21.816406 52.429688 21.636719 53.148438 21.492188 53.878906 C 21.351562 54.605469 21.242188 55.339844 21.171875 56.078125 C 21.101562 56.816406 21.066406 57.554688 21.066406 58.300781 Z M 21.066406 58.300781 " clip-rule="nonzero"/></clipPath><linearGradient x1="-4011.406055" gradientTransform="matrix(0.14046, 0.000293463, 0.000293463, 0.14046, 583.536375, -448.847575)" y1="3456.599363" x2="-3758.998065" gradientUnits="userSpaceOnUse" y2="3737.051755" id="b05f0acb9f"><stop stop-opacity="1" stop-color="rgb(63.09967%, 0%, 92.89856%)" offset="0"/><stop stop-opacity="1" stop-color="rgb(63.09967%, 0%, 92.89856%)" offset="0.25"/><stop stop-opacity="1" stop-color="rgb(63.09967%, 0%, 92.89856%)" offset="0.363197"/><stop stop-opacity="1" stop-color="rgb(63.09967%, 0%, 92.89856%)" offset="0.375"/><stop stop-opacity="1" stop-color="rgb(63.09967%, 0%, 92.89856%)" offset="0.4375"/><stop stop-opacity="1" stop-color="rgb(62.988281%, 0.038147%, 92.910767%)" offset="0.46875"/><stop stop-opacity="1" stop-color="rgb(61.730957%, 0.476074%, 93.052673%)" offset="0.472656"/><stop stop-opacity="1" stop-color="rgb(60.585022%, 0.875854%, 93.182373%)" offset="0.476562"/><stop stop-opacity="1" stop-color="rgb(59.439087%, 1.275635%, 93.310547%)" offset="0.480469"/><stop stop-opacity="1" stop-color="rgb(58.293152%, 1.675415%, 93.440247%)" offset="0.484375"/><stop stop-opacity="1" stop-color="rgb(57.145691%, 2.075195%, 93.56842%)" offset="0.488281"/><stop stop-opacity="1" stop-color="rgb(55.999756%, 2.474976%, 93.69812%)" offset="0.492187"/><stop stop-opacity="1" stop-color="rgb(54.852295%, 2.874756%, 93.826294%)" offset="0.496094"/><stop stop-opacity="1" stop-color="rgb(53.70636%, 3.274536%, 93.955994%)" offset="0.5"/><stop stop-opacity="1" stop-color="rgb(52.560425%, 3.672791%, 94.084167%)" offset="0.503906"/><stop stop-opacity="1" stop-color="rgb(51.41449%, 4.072571%, 94.213867%)" offset="0.507812"/><stop stop-opacity="1" stop-color="rgb(50.267029%, 4.472351%, 94.342041%)" offset="0.511719"/><stop stop-opacity="1" stop-color="rgb(49.121094%, 4.872131%, 94.471741%)" offset="0.515625"/><stop stop-opacity="1" stop-color="rgb(47.975159%, 5.271912%, 94.599915%)" offset="0.519531"/><stop stop-opacity="1" stop-color="rgb(46.829224%, 5.671692%, 94.729614%)" offset="0.523437"/><stop stop-opacity="1" stop-color="rgb(45.681763%, 6.071472%, 94.857788%)" offset="0.527344"/><stop stop-opacity="1" stop-color="rgb(44.535828%, 6.471252%, 94.987488%)" offset="0.53125"/><stop stop-opacity="1" stop-color="rgb(43.388367%, 6.871033%, 95.115662%)" offset="0.535156"/><stop stop-opacity="1" stop-color="rgb(42.242432%, 7.270813%, 95.245361%)" offset="0.539062"/><stop stop-opacity="1" stop-color="rgb(41.096497%, 7.670593%, 95.373535%)" offset="0.542969"/><stop stop-opacity="1" stop-color="rgb(39.950562%, 8.070374%, 95.503235%)" offset="0.546875"/><stop stop-opacity="1" stop-color="rgb(38.803101%, 8.470154%, 95.632935%)" offset="0.550781"/><stop stop-opacity="1" stop-color="rgb(37.657166%, 8.869934%, 95.762634%)" offset="0.554687"/><stop stop-opacity="1" stop-color="rgb(36.51123%, 9.269714%, 95.890808%)" offset="0.558594"/><stop stop-opacity="1" stop-color="rgb(35.365295%, 9.669495%, 96.020508%)" offset="0.5625"/><stop stop-opacity="1" stop-color="rgb(34.217834%, 10.069275%, 96.148682%)" offset="0.566406"/><stop stop-opacity="1" stop-color="rgb(33.071899%, 10.469055%, 96.278381%)" offset="0.570312"/><stop stop-opacity="1" stop-color="rgb(31.924438%, 10.86731%, 96.406555%)" offset="0.574219"/><stop stop-opacity="1" stop-color="rgb(30.778503%, 11.26709%, 96.536255%)" offset="0.578125"/><stop stop-opacity="1" stop-color="rgb(29.632568%, 11.66687%, 96.664429%)" offset="0.582031"/><stop stop-opacity="1" stop-color="rgb(28.486633%, 12.06665%, 96.794128%)" offset="0.585937"/><stop stop-opacity="1" stop-color="rgb(27.339172%, 12.466431%, 96.922302%)" offset="0.589844"/><stop stop-opacity="1" stop-color="rgb(26.193237%, 12.866211%, 97.052002%)" offset="0.59375"/><stop stop-opacity="1" stop-color="rgb(25.047302%, 13.265991%, 97.180176%)" offset="0.597656"/><stop stop-opacity="1" stop-color="rgb(23.901367%, 13.665771%, 97.309875%)" offset="0.601562"/><stop stop-opacity="1" stop-color="rgb(22.753906%, 14.065552%, 97.438049%)" offset="0.605469"/><stop stop-opacity="1" stop-color="rgb(21.607971%, 14.465332%, 97.567749%)" offset="0.609375"/><stop stop-opacity="1" stop-color="rgb(20.46051%, 14.865112%, 97.695923%)" offset="0.613281"/><stop stop-opacity="1" stop-color="rgb(19.314575%, 15.264893%, 97.825623%)" offset="0.617187"/><stop stop-opacity="1" stop-color="rgb(18.16864%, 15.664673%, 97.953796%)" offset="0.621094"/><stop stop-opacity="1" stop-color="rgb(17.022705%, 16.064453%, 98.083496%)" offset="0.625"/><stop stop-opacity="1" stop-color="rgb(15.875244%, 16.464233%, 98.21167%)" offset="0.628906"/><stop stop-opacity="1" stop-color="rgb(14.729309%, 16.864014%, 98.34137%)" offset="0.632812"/><stop stop-opacity="1" stop-color="rgb(13.583374%, 17.262268%, 98.469543%)" offset="0.636719"/><stop stop-opacity="1" stop-color="rgb(12.437439%, 17.662048%, 98.599243%)" offset="0.640625"/><stop stop-opacity="1" stop-color="rgb(11.289978%, 18.061829%, 98.727417%)" offset="0.644531"/><stop stop-opacity="1" stop-color="rgb(10.144043%, 18.461609%, 98.857117%)" offset="0.648437"/><stop stop-opacity="1" stop-color="rgb(8.996582%, 18.861389%, 98.985291%)" offset="0.652344"/><stop stop-opacity="1" stop-color="rgb(7.850647%, 19.261169%, 99.11499%)" offset="0.65625"/><stop stop-opacity="1" stop-color="rgb(6.704712%, 19.66095%, 99.24469%)" offset="0.660156"/><stop stop-opacity="1" stop-color="rgb(5.558777%, 20.06073%, 99.37439%)" offset="0.664062"/><stop stop-opacity="1" stop-color="rgb(4.411316%, 20.46051%, 99.502563%)" offset="0.667969"/><stop stop-opacity="1" stop-color="rgb(3.265381%, 20.860291%, 99.632263%)" offset="0.671875"/><stop stop-opacity="1" stop-color="rgb(2.119446%, 21.260071%, 99.760437%)" offset="0.675781"/><stop stop-opacity="1" stop-color="rgb(0.973511%, 21.659851%, 99.890137%)" offset="0.679687"/><stop stop-opacity="1" stop-color="rgb(0.486755%, 21.829224%, 99.945068%)" offset="0.683594"/><stop stop-opacity="1" stop-color="rgb(0%, 21.998596%, 100%)" offset="0.6875"/><stop stop-opacity="1" stop-color="rgb(0%, 21.998596%, 100%)" offset="0.75"/><stop stop-opacity="1" stop-color="rgb(0%, 21.998596%, 100%)" offset="1"/></linearGradient><clipPath id="8ee24e061b"><path d="M 65 35 L 90 35 L 90 53 L 65 53 Z M 65 35 " clip-rule="nonzero"/></clipPath><clipPath id="eec3c4b6cc"><path d="M 74.15625 61.730469 L 56.621094 44.195312 L 73.203125 27.613281 L 90.738281 45.148438 Z M 74.15625 61.730469 " clip-rule="nonzero"/></clipPath><clipPath id="dd7660d1ae"><path d="M 74.15625 61.730469 L 56.621094 44.195312 L 73.203125 27.613281 L 90.738281 45.148438 Z M 74.15625 61.730469 " clip-rule="nonzero"/></clipPath><clipPath id="a82fb22245"><path d="M 78.015625 46.332031 L 65.175781 46.347656 L 65.175781 47.414062 L 78.015625 47.398438 Z M 65.171875 36.738281 L 74.183594 36.730469 L 74.1875 35.664062 L 65.171875 35.671875 Z M 65.175781 39.402344 L 80.402344 39.386719 L 80.402344 38.320312 L 65.175781 38.335938 Z M 65.175781 51.683594 L 65.175781 52.75 L 82.394531 52.730469 L 82.402344 51.667969 Z M 65.171875 50.085938 L 85.796875 50.0625 L 85.796875 48.996094 L 65.175781 49.015625 Z M 65.167969 42.078125 L 84.976562 42.054688 L 84.980469 40.988281 L 65.171875 41.007812 Z M 65.175781 44.742188 L 89.238281 44.71875 L 89.242188 43.652344 L 65.175781 43.679688 Z M 65.175781 44.742188 " clip-rule="nonzero"/></clipPath><linearGradient x1="-3630.19946" gradientTransform="matrix(0.140713, -0.000144664, -0.000144664, 0.140713, 576.443905, -408.781346)" y1="3215.53" x2="-3459.001636" gradientUnits="userSpaceOnUse" y2="3215.53" id="482a316991"><stop stop-opacity="1" stop-color="rgb(54.899597%, 0%, 92.89856%)" offset="0"/><stop stop-opacity="1" stop-color="rgb(55.038452%, 0.344849%, 92.875671%)" offset="0.00390625"/><stop stop-opacity="1" stop-color="rgb(55.177307%, 0.691223%, 92.854309%)" offset="0.0078125"/><stop stop-opacity="1" stop-color="rgb(55.317688%, 1.042175%, 92.831421%)" offset="0.0117188"/><stop stop-opacity="1" stop-color="rgb(55.459595%, 1.393127%, 92.808533%)" offset="0.015625"/><stop stop-opacity="1" stop-color="rgb(55.599976%, 1.74408%, 92.785645%)" offset="0.0195312"/><stop stop-opacity="1" stop-color="rgb(55.741882%, 2.095032%, 92.764282%)" offset="0.0234375"/><stop stop-opacity="1" stop-color="rgb(55.882263%, 2.445984%, 92.741394%)" offset="0.0273438"/><stop stop-opacity="1" stop-color="rgb(56.02417%, 2.796936%, 92.718506%)" offset="0.03125"/><stop stop-opacity="1" stop-color="rgb(56.164551%, 3.147888%, 92.695618%)" offset="0.0351562"/><stop stop-opacity="1" stop-color="rgb(56.306458%, 3.49884%, 92.672729%)" offset="0.0390625"/><stop stop-opacity="1" stop-color="rgb(56.446838%, 3.849792%, 92.649841%)" offset="0.0429688"/><stop stop-opacity="1" stop-color="rgb(56.588745%, 4.200745%, 92.628479%)" offset="0.046875"/><stop stop-opacity="1" stop-color="rgb(56.729126%, 4.551697%, 92.605591%)" offset="0.0507812"/><stop stop-opacity="1" stop-color="rgb(56.871033%, 4.902649%, 92.582703%)" offset="0.0546875"/><stop stop-opacity="1" stop-color="rgb(57.011414%, 5.253601%, 92.559814%)" offset="0.0585938"/><stop stop-opacity="1" stop-color="rgb(57.15332%, 5.604553%, 92.536926%)" offset="0.0625"/><stop stop-opacity="1" stop-color="rgb(57.293701%, 5.955505%, 92.514038%)" offset="0.0664062"/><stop stop-opacity="1" stop-color="rgb(57.435608%, 6.306458%, 92.49115%)" offset="0.0703125"/><stop stop-opacity="1" stop-color="rgb(57.575989%, 6.65741%, 92.468262%)" offset="0.0742187"/><stop stop-opacity="1" stop-color="rgb(57.71637%, 7.008362%, 92.446899%)" offset="0.078125"/><stop stop-opacity="1" stop-color="rgb(57.85675%, 7.359314%, 92.424011%)" offset="0.0820312"/><stop stop-opacity="1" stop-color="rgb(57.998657%, 7.710266%, 92.401123%)" offset="0.0859375"/><stop stop-opacity="1" stop-color="rgb(58.139038%, 8.061218%, 92.378235%)" offset="0.0898437"/><stop stop-opacity="1" stop-color="rgb(58.280945%, 8.41217%, 92.355347%)" offset="0.09375"/><stop stop-opacity="1" stop-color="rgb(58.421326%, 8.763123%, 92.332458%)" offset="0.0976562"/><stop stop-opacity="1" stop-color="rgb(58.563232%, 9.114075%, 92.311096%)" offset="0.101562"/><stop stop-opacity="1" stop-color="rgb(58.703613%, 9.465027%, 92.288208%)" offset="0.105469"/><stop stop-opacity="1" stop-color="rgb(58.84552%, 9.815979%, 92.26532%)" offset="0.109375"/><stop stop-opacity="1" stop-color="rgb(58.985901%, 10.166931%, 92.242432%)" offset="0.113281"/><stop stop-opacity="1" stop-color="rgb(59.127808%, 10.517883%, 92.219543%)" offset="0.117187"/><stop stop-opacity="1" stop-color="rgb(59.268188%, 10.868835%, 92.196655%)" offset="0.121094"/><stop stop-opacity="1" stop-color="rgb(59.410095%, 11.219788%, 92.173767%)" offset="0.125"/><stop stop-opacity="1" stop-color="rgb(59.550476%, 11.57074%, 92.150879%)" offset="0.128906"/><stop stop-opacity="1" stop-color="rgb(59.692383%, 11.921692%, 92.129517%)" offset="0.132812"/><stop stop-opacity="1" stop-color="rgb(59.832764%, 12.272644%, 92.106628%)" offset="0.136719"/><stop stop-opacity="1" stop-color="rgb(59.97467%, 12.623596%, 92.08374%)" offset="0.140625"/><stop stop-opacity="1" stop-color="rgb(60.115051%, 12.974548%, 92.060852%)" offset="0.144531"/><stop stop-opacity="1" stop-color="rgb(60.256958%, 13.327026%, 92.037964%)" offset="0.148438"/><stop stop-opacity="1" stop-color="rgb(60.397339%, 13.677979%, 92.015076%)" offset="0.152344"/><stop stop-opacity="1" stop-color="rgb(60.539246%, 14.028931%, 91.993713%)" offset="0.15625"/><stop stop-opacity="1" stop-color="rgb(60.679626%, 14.379883%, 91.970825%)" offset="0.160156"/><stop stop-opacity="1" stop-color="rgb(60.821533%, 14.730835%, 91.947937%)" offset="0.164063"/><stop stop-opacity="1" stop-color="rgb(60.961914%, 15.081787%, 91.925049%)" offset="0.167969"/><stop stop-opacity="1" stop-color="rgb(61.103821%, 15.432739%, 91.902161%)" offset="0.171875"/><stop stop-opacity="1" stop-color="rgb(61.244202%, 15.783691%, 91.879272%)" offset="0.175781"/><stop stop-opacity="1" stop-color="rgb(61.386108%, 16.134644%, 91.856384%)" offset="0.179688"/><stop stop-opacity="1" stop-color="rgb(61.526489%, 16.485596%, 91.833496%)" offset="0.183594"/><stop stop-opacity="1" stop-color="rgb(61.668396%, 16.836548%, 91.812134%)" offset="0.1875"/><stop stop-opacity="1" stop-color="rgb(61.808777%, 17.1875%, 91.789246%)" offset="0.191406"/><stop stop-opacity="1" stop-color="rgb(61.950684%, 17.538452%, 91.766357%)" offset="0.195312"/><stop stop-opacity="1" stop-color="rgb(62.091064%, 17.889404%, 91.743469%)" offset="0.199219"/><stop stop-opacity="1" stop-color="rgb(62.231445%, 18.240356%, 91.720581%)" offset="0.203125"/><stop stop-opacity="1" stop-color="rgb(62.371826%, 18.591309%, 91.697693%)" offset="0.207031"/><stop stop-opacity="1" stop-color="rgb(62.513733%, 18.942261%, 91.676331%)" offset="0.210937"/><stop stop-opacity="1" stop-color="rgb(62.654114%, 19.293213%, 91.653442%)" offset="0.214844"/><stop stop-opacity="1" stop-color="rgb(62.796021%, 19.644165%, 91.630554%)" offset="0.21875"/><stop stop-opacity="1" stop-color="rgb(62.936401%, 19.995117%, 91.607666%)" offset="0.222656"/><stop stop-opacity="1" stop-color="rgb(63.078308%, 20.346069%, 91.584778%)" offset="0.226562"/><stop stop-opacity="1" stop-color="rgb(63.218689%, 20.697021%, 91.56189%)" offset="0.230469"/><stop stop-opacity="1" stop-color="rgb(63.360596%, 21.047974%, 91.539001%)" offset="0.234375"/><stop stop-opacity="1" stop-color="rgb(63.500977%, 21.398926%, 91.516113%)" offset="0.238281"/><stop stop-opacity="1" stop-color="rgb(63.642883%, 21.749878%, 91.494751%)" offset="0.242188"/><stop stop-opacity="1" stop-color="rgb(63.783264%, 22.10083%, 91.471863%)" offset="0.246094"/><stop stop-opacity="1" stop-color="rgb(63.925171%, 22.451782%, 91.448975%)" offset="0.25"/><stop stop-opacity="1" stop-color="rgb(64.065552%, 22.802734%, 91.426086%)" offset="0.253906"/><stop stop-opacity="1" stop-color="rgb(64.207458%, 23.153687%, 91.403198%)" offset="0.257812"/><stop stop-opacity="1" stop-color="rgb(64.347839%, 23.504639%, 91.38031%)" offset="0.261719"/><stop stop-opacity="1" stop-color="rgb(64.489746%, 23.855591%, 91.358948%)" offset="0.265625"/><stop stop-opacity="1" stop-color="rgb(64.630127%, 24.206543%, 91.33606%)" offset="0.269531"/><stop stop-opacity="1" stop-color="rgb(64.772034%, 24.557495%, 91.313171%)" offset="0.273438"/><stop stop-opacity="1" stop-color="rgb(64.912415%, 24.908447%, 91.290283%)" offset="0.277344"/><stop stop-opacity="1" stop-color="rgb(65.054321%, 25.259399%, 91.267395%)" offset="0.28125"/><stop stop-opacity="1" stop-color="rgb(65.194702%, 25.610352%, 91.244507%)" offset="0.285156"/><stop stop-opacity="1" stop-color="rgb(65.336609%, 25.961304%, 91.221619%)" offset="0.289062"/><stop stop-opacity="1" stop-color="rgb(65.47699%, 26.312256%, 91.19873%)" offset="0.292969"/><stop stop-opacity="1" stop-color="rgb(65.618896%, 26.663208%, 91.177368%)" offset="0.296875"/><stop stop-opacity="1" stop-color="rgb(65.759277%, 27.01416%, 91.15448%)" offset="0.300781"/><stop stop-opacity="1" stop-color="rgb(65.901184%, 27.365112%, 91.131592%)" offset="0.304687"/><stop stop-opacity="1" stop-color="rgb(66.041565%, 27.716064%, 91.108704%)" offset="0.308594"/><stop stop-opacity="1" stop-color="rgb(66.183472%, 28.067017%, 91.085815%)" offset="0.3125"/><stop stop-opacity="1" stop-color="rgb(66.323853%, 28.417969%, 91.062927%)" offset="0.316406"/><stop stop-opacity="1" stop-color="rgb(66.465759%, 28.768921%, 91.041565%)" offset="0.320312"/><stop stop-opacity="1" stop-color="rgb(66.60614%, 29.119873%, 91.018677%)" offset="0.324219"/><stop stop-opacity="1" stop-color="rgb(66.746521%, 29.470825%, 90.995789%)" offset="0.328125"/><stop stop-opacity="1" stop-color="rgb(66.886902%, 29.821777%, 90.9729%)" offset="0.332031"/><stop stop-opacity="1" stop-color="rgb(67.028809%, 30.172729%, 90.950012%)" offset="0.335937"/><stop stop-opacity="1" stop-color="rgb(67.169189%, 30.523682%, 90.927124%)" offset="0.339844"/><stop stop-opacity="1" stop-color="rgb(67.311096%, 30.87616%, 90.905762%)" offset="0.34375"/><stop stop-opacity="1" stop-color="rgb(67.451477%, 31.227112%, 90.882874%)" offset="0.347656"/><stop stop-opacity="1" stop-color="rgb(67.593384%, 31.578064%, 90.859985%)" offset="0.351562"/><stop stop-opacity="1" stop-color="rgb(67.733765%, 31.929016%, 90.837097%)" offset="0.355469"/><stop stop-opacity="1" stop-color="rgb(67.875671%, 32.279968%, 90.814209%)" offset="0.359375"/><stop stop-opacity="1" stop-color="rgb(68.016052%, 32.63092%, 90.791321%)" offset="0.363281"/><stop stop-opacity="1" stop-color="rgb(68.157959%, 32.981873%, 90.768433%)" offset="0.367187"/><stop stop-opacity="1" stop-color="rgb(68.29834%, 33.332825%, 90.745544%)" offset="0.371094"/><stop stop-opacity="1" stop-color="rgb(68.440247%, 33.683777%, 90.724182%)" offset="0.375"/><stop stop-opacity="1" stop-color="rgb(68.580627%, 34.034729%, 90.701294%)" offset="0.378906"/><stop stop-opacity="1" stop-color="rgb(68.722534%, 34.385681%, 90.678406%)" offset="0.382813"/><stop stop-opacity="1" stop-color="rgb(68.862915%, 34.736633%, 90.655518%)" offset="0.386719"/><stop stop-opacity="1" stop-color="rgb(69.004822%, 35.087585%, 90.632629%)" offset="0.390625"/><stop stop-opacity="1" stop-color="rgb(69.145203%, 35.438538%, 90.609741%)" offset="0.394531"/><stop stop-opacity="1" stop-color="rgb(69.287109%, 35.78949%, 90.588379%)" offset="0.398438"/><stop stop-opacity="1" stop-color="rgb(69.42749%, 36.140442%, 90.565491%)" offset="0.402344"/><stop stop-opacity="1" stop-color="rgb(69.569397%, 36.491394%, 90.542603%)" offset="0.40625"/><stop stop-opacity="1" stop-color="rgb(69.709778%, 36.842346%, 90.519714%)" offset="0.410156"/><stop stop-opacity="1" stop-color="rgb(69.851685%, 37.193298%, 90.496826%)" offset="0.414062"/><stop stop-opacity="1" stop-color="rgb(69.992065%, 37.54425%, 90.473938%)" offset="0.417969"/><stop stop-opacity="1" stop-color="rgb(70.133972%, 37.895203%, 90.45105%)" offset="0.421875"/><stop stop-opacity="1" stop-color="rgb(70.274353%, 38.246155%, 90.428162%)" offset="0.425781"/><stop stop-opacity="1" stop-color="rgb(70.41626%, 38.597107%, 90.406799%)" offset="0.429688"/><stop stop-opacity="1" stop-color="rgb(70.556641%, 38.948059%, 90.383911%)" offset="0.433594"/><stop stop-opacity="1" stop-color="rgb(70.698547%, 39.299011%, 90.361023%)" offset="0.4375"/><stop stop-opacity="1" stop-color="rgb(70.838928%, 39.649963%, 90.338135%)" offset="0.441406"/><stop stop-opacity="1" stop-color="rgb(70.980835%, 40.000916%, 90.315247%)" offset="0.445312"/><stop stop-opacity="1" stop-color="rgb(71.121216%, 40.351868%, 90.292358%)" offset="0.449219"/><stop stop-opacity="1" stop-color="rgb(71.261597%, 40.70282%, 90.270996%)" offset="0.453125"/><stop stop-opacity="1" stop-color="rgb(71.401978%, 41.053772%, 90.248108%)" offset="0.457031"/><stop stop-opacity="1" stop-color="rgb(71.543884%, 41.404724%, 90.22522%)" offset="0.460937"/><stop stop-opacity="1" stop-color="rgb(71.684265%, 41.755676%, 90.202332%)" offset="0.464844"/><stop stop-opacity="1" stop-color="rgb(71.826172%, 42.106628%, 90.179443%)" offset="0.46875"/><stop stop-opacity="1" stop-color="rgb(71.966553%, 42.457581%, 90.156555%)" offset="0.472656"/><stop stop-opacity="1" stop-color="rgb(72.108459%, 42.808533%, 90.133667%)" offset="0.476562"/><stop stop-opacity="1" stop-color="rgb(72.24884%, 43.159485%, 90.110779%)" offset="0.480469"/><stop stop-opacity="1" stop-color="rgb(72.390747%, 43.510437%, 90.089417%)" offset="0.484375"/><stop stop-opacity="1" stop-color="rgb(72.531128%, 43.861389%, 90.066528%)" offset="0.488281"/><stop stop-opacity="1" stop-color="rgb(72.673035%, 44.212341%, 90.04364%)" offset="0.492187"/><stop stop-opacity="1" stop-color="rgb(72.813416%, 44.563293%, 90.020752%)" offset="0.496094"/><stop stop-opacity="1" stop-color="rgb(72.955322%, 44.914246%, 89.997864%)" offset="0.5"/><stop stop-opacity="1" stop-color="rgb(73.095703%, 45.265198%, 89.974976%)" offset="0.503906"/><stop stop-opacity="1" stop-color="rgb(73.23761%, 45.61615%, 89.953613%)" offset="0.507812"/><stop stop-opacity="1" stop-color="rgb(73.377991%, 45.967102%, 89.930725%)" offset="0.511719"/><stop stop-opacity="1" stop-color="rgb(73.519897%, 46.318054%, 89.907837%)" offset="0.515625"/><stop stop-opacity="1" stop-color="rgb(73.660278%, 46.669006%, 89.884949%)" offset="0.519531"/><stop stop-opacity="1" stop-color="rgb(73.802185%, 47.019958%, 89.862061%)" offset="0.523437"/><stop stop-opacity="1" stop-color="rgb(73.942566%, 47.370911%, 89.839172%)" offset="0.527344"/><stop stop-opacity="1" stop-color="rgb(74.084473%, 47.721863%, 89.816284%)" offset="0.53125"/><stop stop-opacity="1" stop-color="rgb(74.224854%, 48.072815%, 89.793396%)" offset="0.535156"/><stop stop-opacity="1" stop-color="rgb(74.36676%, 48.423767%, 89.772034%)" offset="0.539062"/><stop stop-opacity="1" stop-color="rgb(74.507141%, 48.774719%, 89.749146%)" offset="0.542969"/><stop stop-opacity="1" stop-color="rgb(74.649048%, 49.127197%, 89.726257%)" offset="0.546875"/><stop stop-opacity="1" stop-color="rgb(74.789429%, 49.478149%, 89.703369%)" offset="0.550781"/><stop stop-opacity="1" stop-color="rgb(74.931335%, 49.829102%, 89.680481%)" offset="0.554687"/><stop stop-opacity="1" stop-color="rgb(75.071716%, 50.180054%, 89.657593%)" offset="0.558594"/><stop stop-opacity="1" stop-color="rgb(75.213623%, 50.531006%, 89.63623%)" offset="0.5625"/><stop stop-opacity="1" stop-color="rgb(75.354004%, 50.881958%, 89.613342%)" offset="0.566406"/><stop stop-opacity="1" stop-color="rgb(75.495911%, 51.23291%, 89.590454%)" offset="0.570312"/><stop stop-opacity="1" stop-color="rgb(75.636292%, 51.583862%, 89.567566%)" offset="0.574219"/><stop stop-opacity="1" stop-color="rgb(75.776672%, 51.934814%, 89.544678%)" offset="0.578125"/><stop stop-opacity="1" stop-color="rgb(75.917053%, 52.285767%, 89.52179%)" offset="0.582031"/><stop stop-opacity="1" stop-color="rgb(76.05896%, 52.636719%, 89.498901%)" offset="0.585937"/><stop stop-opacity="1" stop-color="rgb(76.199341%, 52.987671%, 89.476013%)" offset="0.589844"/><stop stop-opacity="1" stop-color="rgb(76.341248%, 53.338623%, 89.454651%)" offset="0.59375"/><stop stop-opacity="1" stop-color="rgb(76.481628%, 53.689575%, 89.431763%)" offset="0.597656"/><stop stop-opacity="1" stop-color="rgb(76.623535%, 54.040527%, 89.408875%)" offset="0.601562"/><stop stop-opacity="1" stop-color="rgb(76.763916%, 54.391479%, 89.385986%)" offset="0.605469"/><stop stop-opacity="1" stop-color="rgb(76.905823%, 54.742432%, 89.363098%)" offset="0.609375"/><stop stop-opacity="1" stop-color="rgb(77.046204%, 55.093384%, 89.34021%)" offset="0.613281"/><stop stop-opacity="1" stop-color="rgb(77.18811%, 55.444336%, 89.318848%)" offset="0.617187"/><stop stop-opacity="1" stop-color="rgb(77.328491%, 55.795288%, 89.295959%)" offset="0.621094"/><stop stop-opacity="1" stop-color="rgb(77.470398%, 56.14624%, 89.273071%)" offset="0.625"/><stop stop-opacity="1" stop-color="rgb(77.610779%, 56.497192%, 89.250183%)" offset="0.628906"/><stop stop-opacity="1" stop-color="rgb(77.752686%, 56.848145%, 89.227295%)" offset="0.632812"/><stop stop-opacity="1" stop-color="rgb(77.893066%, 57.199097%, 89.204407%)" offset="0.636719"/><stop stop-opacity="1" stop-color="rgb(78.034973%, 57.550049%, 89.181519%)" offset="0.640625"/><stop stop-opacity="1" stop-color="rgb(78.175354%, 57.901001%, 89.15863%)" offset="0.644531"/><stop stop-opacity="1" stop-color="rgb(78.317261%, 58.251953%, 89.137268%)" offset="0.648437"/><stop stop-opacity="1" stop-color="rgb(78.457642%, 58.602905%, 89.11438%)" offset="0.652344"/><stop stop-opacity="1" stop-color="rgb(78.599548%, 58.953857%, 89.091492%)" offset="0.65625"/><stop stop-opacity="1" stop-color="rgb(78.739929%, 59.30481%, 89.068604%)" offset="0.660156"/><stop stop-opacity="1" stop-color="rgb(78.881836%, 59.655762%, 89.045715%)" offset="0.664062"/><stop stop-opacity="1" stop-color="rgb(79.022217%, 60.006714%, 89.022827%)" offset="0.667969"/><stop stop-opacity="1" stop-color="rgb(79.164124%, 60.357666%, 89.001465%)" offset="0.671875"/><stop stop-opacity="1" stop-color="rgb(79.304504%, 60.708618%, 88.978577%)" offset="0.675781"/><stop stop-opacity="1" stop-color="rgb(79.446411%, 61.05957%, 88.955688%)" offset="0.679687"/><stop stop-opacity="1" stop-color="rgb(79.586792%, 61.410522%, 88.9328%)" offset="0.683594"/><stop stop-opacity="1" stop-color="rgb(79.728699%, 61.761475%, 88.909912%)" offset="0.6875"/><stop stop-opacity="1" stop-color="rgb(79.86908%, 62.112427%, 88.887024%)" offset="0.691406"/><stop stop-opacity="1" stop-color="rgb(80.010986%, 62.463379%, 88.864136%)" offset="0.695312"/><stop stop-opacity="1" stop-color="rgb(80.151367%, 62.814331%, 88.841248%)" offset="0.699219"/><stop stop-opacity="1" stop-color="rgb(80.291748%, 63.165283%, 88.819885%)" offset="0.703125"/><stop stop-opacity="1" stop-color="rgb(80.432129%, 63.516235%, 88.796997%)" offset="0.707031"/><stop stop-opacity="1" stop-color="rgb(80.574036%, 63.867188%, 88.774109%)" offset="0.710938"/><stop stop-opacity="1" stop-color="rgb(80.714417%, 64.21814%, 88.751221%)" offset="0.714844"/><stop stop-opacity="1" stop-color="rgb(80.856323%, 64.569092%, 88.728333%)" offset="0.71875"/><stop stop-opacity="1" stop-color="rgb(80.996704%, 64.920044%, 88.705444%)" offset="0.722656"/><stop stop-opacity="1" stop-color="rgb(81.138611%, 65.270996%, 88.684082%)" offset="0.726562"/><stop stop-opacity="1" stop-color="rgb(81.278992%, 65.621948%, 88.661194%)" offset="0.730469"/><stop stop-opacity="1" stop-color="rgb(81.420898%, 65.9729%, 88.638306%)" offset="0.734375"/><stop stop-opacity="1" stop-color="rgb(81.561279%, 66.323853%, 88.615417%)" offset="0.738281"/><stop stop-opacity="1" stop-color="rgb(81.703186%, 66.676331%, 88.592529%)" offset="0.742187"/><stop stop-opacity="1" stop-color="rgb(81.843567%, 67.027283%, 88.569641%)" offset="0.746094"/><stop stop-opacity="1" stop-color="rgb(81.985474%, 67.378235%, 88.546753%)" offset="0.75"/><stop stop-opacity="1" stop-color="rgb(82.125854%, 67.729187%, 88.523865%)" offset="0.753906"/><stop stop-opacity="1" stop-color="rgb(82.267761%, 68.080139%, 88.502502%)" offset="0.757812"/><stop stop-opacity="1" stop-color="rgb(82.408142%, 68.431091%, 88.479614%)" offset="0.761719"/><stop stop-opacity="1" stop-color="rgb(82.550049%, 68.782043%, 88.456726%)" offset="0.765625"/><stop stop-opacity="1" stop-color="rgb(82.69043%, 69.132996%, 88.433838%)" offset="0.769531"/><stop stop-opacity="1" stop-color="rgb(82.832336%, 69.483948%, 88.41095%)" offset="0.773437"/><stop stop-opacity="1" stop-color="rgb(82.972717%, 69.8349%, 88.388062%)" offset="0.777344"/><stop stop-opacity="1" stop-color="rgb(83.114624%, 70.185852%, 88.366699%)" offset="0.78125"/><stop stop-opacity="1" stop-color="rgb(83.255005%, 70.536804%, 88.343811%)" offset="0.785156"/><stop stop-opacity="1" stop-color="rgb(83.396912%, 70.887756%, 88.320923%)" offset="0.789062"/><stop stop-opacity="1" stop-color="rgb(83.537292%, 71.238708%, 88.298035%)" offset="0.792969"/><stop stop-opacity="1" stop-color="rgb(83.679199%, 71.589661%, 88.275146%)" offset="0.796875"/><stop stop-opacity="1" stop-color="rgb(83.81958%, 71.940613%, 88.252258%)" offset="0.800781"/><stop stop-opacity="1" stop-color="rgb(83.961487%, 72.291565%, 88.22937%)" offset="0.804687"/><stop stop-opacity="1" stop-color="rgb(84.101868%, 72.642517%, 88.206482%)" offset="0.808594"/><stop stop-opacity="1" stop-color="rgb(84.243774%, 72.993469%, 88.18512%)" offset="0.8125"/><stop stop-opacity="1" stop-color="rgb(84.384155%, 73.344421%, 88.162231%)" offset="0.816406"/><stop stop-opacity="1" stop-color="rgb(84.526062%, 73.695374%, 88.139343%)" offset="0.820312"/><stop stop-opacity="1" stop-color="rgb(84.666443%, 74.046326%, 88.116455%)" offset="0.824219"/><stop stop-opacity="1" stop-color="rgb(84.806824%, 74.397278%, 88.093567%)" offset="0.828125"/><stop stop-opacity="1" stop-color="rgb(84.947205%, 74.74823%, 88.070679%)" offset="0.832031"/><stop stop-opacity="1" stop-color="rgb(85.089111%, 75.099182%, 88.049316%)" offset="0.835937"/><stop stop-opacity="1" stop-color="rgb(85.229492%, 75.450134%, 88.026428%)" offset="0.839844"/><stop stop-opacity="1" stop-color="rgb(85.371399%, 75.801086%, 88.00354%)" offset="0.84375"/><stop stop-opacity="1" stop-color="rgb(85.51178%, 76.152039%, 87.980652%)" offset="0.847656"/><stop stop-opacity="1" stop-color="rgb(85.653687%, 76.502991%, 87.957764%)" offset="0.851562"/><stop stop-opacity="1" stop-color="rgb(85.794067%, 76.853943%, 87.934875%)" offset="0.855469"/><stop stop-opacity="1" stop-color="rgb(85.935974%, 77.204895%, 87.911987%)" offset="0.859375"/><stop stop-opacity="1" stop-color="rgb(86.076355%, 77.555847%, 87.889099%)" offset="0.863281"/><stop stop-opacity="1" stop-color="rgb(86.218262%, 77.906799%, 87.867737%)" offset="0.867187"/><stop stop-opacity="1" stop-color="rgb(86.358643%, 78.257751%, 87.844849%)" offset="0.871094"/><stop stop-opacity="1" stop-color="rgb(86.500549%, 78.608704%, 87.82196%)" offset="0.875"/><stop stop-opacity="1" stop-color="rgb(86.64093%, 78.959656%, 87.799072%)" offset="0.878906"/><stop stop-opacity="1" stop-color="rgb(86.782837%, 79.310608%, 87.776184%)" offset="0.882812"/><stop stop-opacity="1" stop-color="rgb(86.923218%, 79.66156%, 87.753296%)" offset="0.886719"/><stop stop-opacity="1" stop-color="rgb(87.065125%, 80.012512%, 87.731934%)" offset="0.890625"/><stop stop-opacity="1" stop-color="rgb(87.205505%, 80.363464%, 87.709045%)" offset="0.894531"/><stop stop-opacity="1" stop-color="rgb(87.347412%, 80.714417%, 87.686157%)" offset="0.898437"/><stop stop-opacity="1" stop-color="rgb(87.487793%, 81.065369%, 87.663269%)" offset="0.902344"/><stop stop-opacity="1" stop-color="rgb(87.6297%, 81.416321%, 87.640381%)" offset="0.90625"/><stop stop-opacity="1" stop-color="rgb(87.770081%, 81.767273%, 87.617493%)" offset="0.910156"/><stop stop-opacity="1" stop-color="rgb(87.911987%, 82.118225%, 87.594604%)" offset="0.914062"/><stop stop-opacity="1" stop-color="rgb(88.052368%, 82.469177%, 87.571716%)" offset="0.917969"/><stop stop-opacity="1" stop-color="rgb(88.194275%, 82.820129%, 87.550354%)" offset="0.921875"/><stop stop-opacity="1" stop-color="rgb(88.334656%, 83.171082%, 87.527466%)" offset="0.925781"/><stop stop-opacity="1" stop-color="rgb(88.476562%, 83.522034%, 87.504578%)" offset="0.929687"/><stop stop-opacity="1" stop-color="rgb(88.616943%, 83.872986%, 87.481689%)" offset="0.933594"/><stop stop-opacity="1" stop-color="rgb(88.75885%, 84.225464%, 87.458801%)" offset="0.9375"/><stop stop-opacity="1" stop-color="rgb(88.899231%, 84.576416%, 87.435913%)" offset="0.941406"/><stop stop-opacity="1" stop-color="rgb(89.041138%, 84.927368%, 87.414551%)" offset="0.945312"/><stop stop-opacity="1" stop-color="rgb(89.181519%, 85.27832%, 87.391663%)" offset="0.949219"/><stop stop-opacity="1" stop-color="rgb(89.321899%, 85.629272%, 87.368774%)" offset="0.953125"/><stop stop-opacity="1" stop-color="rgb(89.46228%, 85.980225%, 87.345886%)" offset="0.957031"/><stop stop-opacity="1" stop-color="rgb(89.604187%, 86.331177%, 87.322998%)" offset="0.960937"/><stop stop-opacity="1" stop-color="rgb(89.744568%, 86.682129%, 87.30011%)" offset="0.964844"/><stop stop-opacity="1" stop-color="rgb(89.886475%, 87.033081%, 87.277222%)" offset="0.96875"/><stop stop-opacity="1" stop-color="rgb(90.026855%, 87.384033%, 87.254333%)" offset="0.972656"/><stop stop-opacity="1" stop-color="rgb(90.168762%, 87.734985%, 87.232971%)" offset="0.976562"/><stop stop-opacity="1" stop-color="rgb(90.309143%, 88.085938%, 87.210083%)" offset="0.980469"/><stop stop-opacity="1" stop-color="rgb(90.45105%, 88.43689%, 87.187195%)" offset="0.984375"/><stop stop-opacity="1" stop-color="rgb(90.591431%, 88.787842%, 87.164307%)" offset="0.988281"/><stop stop-opacity="1" stop-color="rgb(90.733337%, 89.138794%, 87.141418%)" offset="0.992187"/><stop stop-opacity="1" stop-color="rgb(90.866089%, 89.468384%, 87.120056%)" offset="0.996094"/><stop stop-opacity="1" stop-color="rgb(90.99884%, 89.7995%, 87.098694%)" offset="1"/></linearGradient><clipPath id="ad0ce16fd2"><path d="M 43 10 L 67 10 L 67 81 L 43 81 Z M 43 10 " clip-rule="nonzero"/></clipPath><clipPath id="ed8ee5a46c"><path d="M 48.367188 85.714844 L 11.011719 48.359375 L 49.128906 10.242188 L 86.484375 47.597656 Z M 48.367188 85.714844 " clip-rule="nonzero"/></clipPath><clipPath id="e027282d2c"><path d="M 48.367188 85.714844 L 11.011719 48.359375 L 49.128906 10.242188 L 86.484375 47.597656 Z M 48.367188 85.714844 " clip-rule="nonzero"/></clipPath><clipPath id="031c49d966"><path d="M 43.628906 66.640625 L 43.632812 67.703125 C 44.246094 67.703125 44.851562 67.644531 45.453125 67.527344 C 46.054688 67.40625 46.636719 67.230469 47.203125 66.996094 C 47.769531 66.761719 48.304688 66.476562 48.816406 66.136719 C 49.324219 65.796875 49.792969 65.410156 50.226562 64.976562 C 50.660156 64.542969 51.046875 64.074219 51.386719 63.5625 C 51.726562 63.054688 52.011719 62.519531 52.246094 61.953125 C 52.480469 61.386719 52.65625 60.804688 52.777344 60.203125 C 52.894531 59.601562 52.953125 58.996094 52.953125 58.382812 L 52.875 13.988281 L 51.8125 12.925781 L 51.890625 58.378906 C 51.890625 58.921875 51.839844 59.460938 51.734375 59.992188 C 51.628906 60.527344 51.472656 61.042969 51.265625 61.542969 C 51.058594 62.046875 50.800781 62.523438 50.5 62.972656 C 50.199219 63.425781 49.859375 63.839844 49.476562 64.222656 C 49.089844 64.609375 48.675781 64.949219 48.222656 65.25 C 47.773438 65.550781 47.296875 65.808594 46.792969 66.015625 C 46.292969 66.222656 45.777344 66.378906 45.242188 66.484375 C 44.710938 66.589844 44.171875 66.640625 43.628906 66.640625 Z M 49.226562 58.378906 C 49.226562 58.746094 49.191406 59.113281 49.121094 59.472656 C 49.046875 59.835938 48.941406 60.1875 48.800781 60.527344 C 48.660156 60.867188 48.488281 61.191406 48.285156 61.496094 C 48.078125 61.800781 47.847656 62.085938 47.585938 62.34375 C 47.328125 62.605469 47.042969 62.835938 46.738281 63.042969 C 46.433594 63.246094 46.109375 63.417969 45.769531 63.558594 C 45.429688 63.699219 45.078125 63.804688 44.714844 63.878906 C 44.355469 63.949219 43.988281 63.984375 43.621094 63.984375 L 43.625 65.046875 C 44.0625 65.046875 44.496094 65.003906 44.925781 64.921875 C 45.355469 64.835938 45.773438 64.710938 46.175781 64.542969 C 46.582031 64.375 46.964844 64.167969 47.328125 63.925781 C 47.695312 63.683594 48.03125 63.40625 48.339844 63.097656 C 48.648438 62.789062 48.925781 62.453125 49.167969 62.085938 C 49.410156 61.722656 49.617188 61.339844 49.785156 60.933594 C 49.953125 60.53125 50.078125 60.113281 50.164062 59.683594 C 50.246094 59.253906 50.289062 58.820312 50.289062 58.382812 L 50.210938 11.324219 L 49.148438 10.261719 Z M 51.359375 66.113281 C 50.339844 67.136719 49.160156 67.929688 47.820312 68.480469 C 46.480469 69.035156 45.085938 69.308594 43.636719 69.300781 L 43.636719 70.363281 C 44.425781 70.363281 45.203125 70.289062 45.976562 70.136719 C 46.75 69.984375 47.5 69.757812 48.226562 69.457031 C 48.953125 69.15625 49.644531 68.789062 50.296875 68.351562 C 50.953125 67.914062 51.558594 67.417969 52.113281 66.863281 C 52.671875 66.308594 53.167969 65.703125 53.601562 65.046875 C 54.039062 64.394531 54.410156 63.703125 54.707031 62.976562 C 55.007812 62.25 55.234375 61.5 55.386719 60.726562 C 55.539062 59.953125 55.617188 59.171875 55.613281 58.386719 L 55.539062 16.652344 L 54.476562 15.589844 L 54.550781 58.382812 C 54.558594 59.835938 54.285156 61.230469 53.730469 62.570312 C 53.179688 63.910156 52.386719 65.089844 51.359375 66.113281 Z M 58.894531 73.648438 C 57.898438 74.648438 56.8125 75.542969 55.636719 76.332031 C 54.460938 77.117188 53.21875 77.78125 51.910156 78.320312 C 50.601562 78.863281 49.253906 79.265625 47.863281 79.539062 C 46.472656 79.8125 45.070312 79.945312 43.652344 79.9375 L 43.652344 81 C 44.394531 81 45.136719 80.964844 45.871094 80.894531 C 46.609375 80.824219 47.34375 80.714844 48.070312 80.574219 C 48.796875 80.429688 49.515625 80.25 50.222656 80.039062 C 50.933594 79.824219 51.628906 79.574219 52.3125 79.292969 C 53 79.011719 53.667969 78.695312 54.320312 78.347656 C 54.972656 78 55.609375 77.617188 56.222656 77.207031 C 56.839844 76.796875 57.433594 76.355469 58.003906 75.886719 C 58.578125 75.417969 59.125 74.921875 59.648438 74.398438 C 60.171875 73.875 60.667969 73.328125 61.136719 72.753906 C 61.605469 72.183594 62.046875 71.589844 62.457031 70.972656 C 62.867188 70.359375 63.25 69.722656 63.597656 69.070312 C 63.945312 68.417969 64.261719 67.746094 64.542969 67.0625 C 64.824219 66.378906 65.074219 65.683594 65.289062 64.972656 C 65.5 64.265625 65.679688 63.546875 65.824219 62.820312 C 65.964844 62.09375 66.074219 61.359375 66.144531 60.621094 C 66.214844 59.886719 66.25 59.144531 66.25 58.402344 L 66.195312 27.308594 L 65.132812 26.246094 L 65.1875 58.402344 C 65.195312 59.820312 65.0625 61.222656 64.789062 62.613281 C 64.515625 64.003906 64.109375 65.351562 63.570312 66.660156 C 63.03125 67.96875 62.367188 69.210938 61.582031 70.386719 C 60.792969 71.5625 59.898438 72.648438 58.894531 73.648438 Z M 57.007812 71.761719 C 56.136719 72.640625 55.183594 73.425781 54.152344 74.113281 C 53.121094 74.804688 52.035156 75.386719 50.886719 75.859375 C 49.742188 76.335938 48.558594 76.691406 47.34375 76.929688 C 46.125 77.167969 44.894531 77.289062 43.652344 77.28125 L 43.652344 78.34375 C 44.308594 78.347656 44.960938 78.316406 45.613281 78.253906 C 46.261719 78.1875 46.910156 78.09375 47.550781 77.96875 C 48.191406 77.839844 48.824219 77.683594 49.449219 77.496094 C 50.078125 77.304688 50.691406 77.085938 51.296875 76.839844 C 51.898438 76.589844 52.488281 76.308594 53.066406 76.003906 C 53.644531 75.695312 54.203125 75.359375 54.746094 75 C 55.289062 74.636719 55.8125 74.246094 56.320312 73.832031 C 56.824219 73.417969 57.308594 72.980469 57.769531 72.519531 C 58.230469 72.058594 58.667969 71.574219 59.082031 71.070312 C 59.496094 70.5625 59.886719 70.039062 60.25 69.496094 C 60.609375 68.953125 60.945312 68.394531 61.253906 67.816406 C 61.558594 67.238281 61.839844 66.648438 62.089844 66.046875 C 62.335938 65.441406 62.554688 64.828125 62.746094 64.199219 C 62.933594 63.574219 63.089844 62.941406 63.21875 62.300781 C 63.34375 61.660156 63.4375 61.011719 63.503906 60.359375 C 63.566406 59.710938 63.597656 59.058594 63.59375 58.402344 L 63.535156 24.648438 L 62.46875 23.582031 L 62.53125 58.402344 C 62.539062 59.644531 62.421875 60.875 62.179688 62.09375 C 61.941406 63.3125 61.585938 64.492188 61.113281 65.640625 C 60.636719 66.785156 60.054688 67.875 59.367188 68.90625 C 58.675781 69.9375 57.890625 70.886719 57.011719 71.761719 Z M 55.121094 69.871094 C 53.601562 71.398438 51.847656 72.570312 49.855469 73.394531 C 47.863281 74.214844 45.789062 74.617188 43.632812 74.605469 L 43.644531 75.679688 C 44.210938 75.683594 44.777344 75.65625 45.34375 75.601562 C 45.90625 75.546875 46.464844 75.464844 47.023438 75.355469 C 47.578125 75.246094 48.128906 75.109375 48.671875 74.945312 C 49.214844 74.78125 49.746094 74.589844 50.269531 74.375 C 50.792969 74.160156 51.304688 73.917969 51.804688 73.652344 C 52.304688 73.382812 52.789062 73.09375 53.261719 72.78125 C 53.730469 72.464844 54.1875 72.128906 54.625 71.769531 C 55.0625 71.410156 55.480469 71.03125 55.882812 70.632812 C 56.28125 70.230469 56.660156 69.8125 57.019531 69.375 C 57.378906 68.9375 57.714844 68.480469 58.03125 68.011719 C 58.34375 67.539062 58.636719 67.054688 58.902344 66.554688 C 59.167969 66.054688 59.410156 65.542969 59.625 65.019531 C 59.839844 64.496094 60.03125 63.960938 60.195312 63.421875 C 60.359375 62.878906 60.496094 62.328125 60.605469 61.773438 C 60.714844 61.214844 60.796875 60.65625 60.851562 60.09375 C 60.90625 59.527344 60.933594 58.960938 60.929688 58.394531 L 60.867188 21.980469 L 59.804688 20.917969 L 59.871094 58.398438 C 59.878906 60.554688 59.472656 62.628906 58.648438 64.617188 C 57.828125 66.609375 56.652344 68.363281 55.128906 69.878906 Z M 43.640625 71.960938 L 43.640625 73.023438 C 44.601562 73.023438 45.554688 72.929688 46.496094 72.742188 C 47.441406 72.554688 48.355469 72.277344 49.242188 71.910156 C 50.132812 71.542969 50.972656 71.09375 51.773438 70.5625 C 52.570312 70.027344 53.308594 69.421875 53.988281 68.742188 C 54.667969 68.0625 55.273438 67.324219 55.808594 66.527344 C 56.339844 65.726562 56.789062 64.886719 57.15625 63.996094 C 57.523438 63.109375 57.800781 62.195312 57.988281 61.25 C 58.175781 60.308594 58.269531 59.355469 58.269531 58.394531 L 58.199219 19.324219 L 57.136719 18.261719 L 57.210938 58.390625 C 57.210938 59.28125 57.125 60.164062 56.953125 61.039062 C 56.777344 61.914062 56.523438 62.765625 56.183594 63.589844 C 55.839844 64.414062 55.425781 65.195312 54.929688 65.9375 C 54.433594 66.675781 53.871094 67.363281 53.242188 67.992188 C 52.613281 68.621094 51.925781 69.183594 51.1875 69.679688 C 50.445312 70.171875 49.664062 70.589844 48.839844 70.929688 C 48.015625 71.273438 47.164062 71.527344 46.289062 71.703125 C 45.414062 71.875 44.53125 71.960938 43.640625 71.960938 Z M 43.640625 71.960938 " clip-rule="nonzero"/></clipPath><linearGradient x1="-50.374118" gradientTransform="matrix(-0.0993343, -0.0993343, 0.0989886, -0.0989886, 48.350723, 85.69671)" y1="-13.398629" x2="370.391051" gradientUnits="userSpaceOnUse" y2="498.672332" id="c62c7f266c"><stop stop-opacity="1" stop-color="rgb(0%, 18.798828%, 100%)" offset="0"/><stop stop-opacity="1" stop-color="rgb(0%, 18.798828%, 100%)" offset="0.25"/><stop stop-opacity="1" stop-color="rgb(0%, 18.798828%, 100%)" offset="0.3125"/><stop stop-opacity="1" stop-color="rgb(0%, 18.798828%, 100%)" offset="0.320312"/><stop stop-opacity="1" stop-color="rgb(0%, 19.126892%, 100%)" offset="0.324219"/><stop stop-opacity="1" stop-color="rgb(0%, 19.456482%, 100%)" offset="0.328125"/><stop stop-opacity="1" stop-color="rgb(0%, 20.007324%, 100%)" offset="0.332031"/><stop stop-opacity="1" stop-color="rgb(0%, 20.559692%, 100%)" offset="0.335937"/><stop stop-opacity="1" stop-color="rgb(0%, 21.110535%, 100%)" offset="0.339844"/><stop stop-opacity="1" stop-color="rgb(0%, 21.661377%, 100%)" offset="0.34375"/><stop stop-opacity="1" stop-color="rgb(0%, 22.212219%, 100%)" offset="0.347656"/><stop stop-opacity="1" stop-color="rgb(0%, 22.764587%, 100%)" offset="0.351562"/><stop stop-opacity="1" stop-color="rgb(0%, 23.31543%, 100%)" offset="0.355469"/><stop stop-opacity="1" stop-color="rgb(0%, 23.866272%, 100%)" offset="0.359375"/><stop stop-opacity="1" stop-color="rgb(0%, 24.417114%, 100%)" offset="0.363281"/><stop stop-opacity="1" stop-color="rgb(0%, 24.969482%, 100%)" offset="0.367187"/><stop stop-opacity="1" stop-color="rgb(0%, 25.520325%, 100%)" offset="0.371094"/><stop stop-opacity="1" stop-color="rgb(0%, 26.072693%, 100%)" offset="0.375"/><stop stop-opacity="1" stop-color="rgb(0%, 26.623535%, 100%)" offset="0.378906"/><stop stop-opacity="1" stop-color="rgb(0%, 27.174377%, 100%)" offset="0.382812"/><stop stop-opacity="1" stop-color="rgb(0%, 27.72522%, 100%)" offset="0.386719"/><stop stop-opacity="1" stop-color="rgb(0%, 28.277588%, 100%)" offset="0.390625"/><stop stop-opacity="1" stop-color="rgb(0%, 28.82843%, 100%)" offset="0.394531"/><stop stop-opacity="1" stop-color="rgb(0%, 29.379272%, 100%)" offset="0.398437"/><stop stop-opacity="1" stop-color="rgb(0%, 29.930115%, 100%)" offset="0.402344"/><stop stop-opacity="1" stop-color="rgb(0%, 30.482483%, 100%)" offset="0.40625"/><stop stop-opacity="1" stop-color="rgb(0%, 31.033325%, 100%)" offset="0.410156"/><stop stop-opacity="1" stop-color="rgb(0%, 31.585693%, 100%)" offset="0.414063"/><stop stop-opacity="1" stop-color="rgb(0%, 32.136536%, 100%)" offset="0.417969"/><stop stop-opacity="1" stop-color="rgb(0%, 32.687378%, 100%)" offset="0.421875"/><stop stop-opacity="1" stop-color="rgb(0%, 33.23822%, 100%)" offset="0.425781"/><stop stop-opacity="1" stop-color="rgb(0%, 33.790588%, 100%)" offset="0.429688"/><stop stop-opacity="1" stop-color="rgb(0%, 34.341431%, 100%)" offset="0.433594"/><stop stop-opacity="1" stop-color="rgb(0%, 34.892273%, 100%)" offset="0.4375"/><stop stop-opacity="1" stop-color="rgb(0%, 35.443115%, 100%)" offset="0.441406"/><stop stop-opacity="1" stop-color="rgb(0%, 35.995483%, 100%)" offset="0.445312"/><stop stop-opacity="1" stop-color="rgb(0%, 36.546326%, 100%)" offset="0.449219"/><stop stop-opacity="1" stop-color="rgb(0%, 37.098694%, 100%)" offset="0.453125"/><stop stop-opacity="1" stop-color="rgb(0%, 37.649536%, 100%)" offset="0.457031"/><stop stop-opacity="1" stop-color="rgb(0%, 38.200378%, 100%)" offset="0.460938"/><stop stop-opacity="1" stop-color="rgb(0%, 38.751221%, 100%)" offset="0.464844"/><stop stop-opacity="1" stop-color="rgb(0%, 39.303589%, 100%)" offset="0.46875"/><stop stop-opacity="1" stop-color="rgb(0%, 39.854431%, 100%)" offset="0.472656"/><stop stop-opacity="1" stop-color="rgb(0%, 40.405273%, 100%)" offset="0.476562"/><stop stop-opacity="1" stop-color="rgb(0%, 40.956116%, 100%)" offset="0.480469"/><stop stop-opacity="1" stop-color="rgb(0%, 41.508484%, 100%)" offset="0.484375"/><stop stop-opacity="1" stop-color="rgb(0%, 42.059326%, 100%)" offset="0.488281"/><stop stop-opacity="1" stop-color="rgb(0%, 42.611694%, 100%)" offset="0.492188"/><stop stop-opacity="1" stop-color="rgb(0%, 43.162537%, 100%)" offset="0.496094"/><stop stop-opacity="1" stop-color="rgb(0%, 43.713379%, 100%)" offset="0.5"/><stop stop-opacity="1" stop-color="rgb(0%, 44.264221%, 100%)" offset="0.503906"/><stop stop-opacity="1" stop-color="rgb(0%, 44.816589%, 100%)" offset="0.507812"/><stop stop-opacity="1" stop-color="rgb(0%, 45.367432%, 100%)" offset="0.511719"/><stop stop-opacity="1" stop-color="rgb(0%, 45.918274%, 100%)" offset="0.515625"/><stop stop-opacity="1" stop-color="rgb(0%, 46.469116%, 100%)" offset="0.519531"/><stop stop-opacity="1" stop-color="rgb(0%, 47.021484%, 100%)" offset="0.523438"/><stop stop-opacity="1" stop-color="rgb(0%, 47.572327%, 100%)" offset="0.527344"/><stop stop-opacity="1" stop-color="rgb(0%, 48.124695%, 100%)" offset="0.53125"/><stop stop-opacity="1" stop-color="rgb(0%, 48.675537%, 100%)" offset="0.535156"/><stop stop-opacity="1" stop-color="rgb(0%, 49.226379%, 100%)" offset="0.539062"/><stop stop-opacity="1" stop-color="rgb(0%, 49.777222%, 100%)" offset="0.542969"/><stop stop-opacity="1" stop-color="rgb(0%, 50.32959%, 100%)" offset="0.546875"/><stop stop-opacity="1" stop-color="rgb(0%, 50.880432%, 100%)" offset="0.550781"/><stop stop-opacity="1" stop-color="rgb(0%, 51.4328%, 100%)" offset="0.554688"/><stop stop-opacity="1" stop-color="rgb(0%, 51.983643%, 100%)" offset="0.558594"/><stop stop-opacity="1" stop-color="rgb(0%, 52.534485%, 100%)" offset="0.5625"/><stop stop-opacity="1" stop-color="rgb(0%, 53.085327%, 100%)" offset="0.566406"/><stop stop-opacity="1" stop-color="rgb(0%, 53.637695%, 100%)" offset="0.570312"/><stop stop-opacity="1" stop-color="rgb(0%, 54.188538%, 100%)" offset="0.574219"/><stop stop-opacity="1" stop-color="rgb(0%, 54.73938%, 100%)" offset="0.578125"/><stop stop-opacity="1" stop-color="rgb(0%, 55.290222%, 100%)" offset="0.582031"/><stop stop-opacity="1" stop-color="rgb(0%, 55.84259%, 100%)" offset="0.585938"/><stop stop-opacity="1" stop-color="rgb(0%, 56.393433%, 100%)" offset="0.589844"/><stop stop-opacity="1" stop-color="rgb(0%, 56.945801%, 100%)" offset="0.59375"/><stop stop-opacity="1" stop-color="rgb(0%, 57.496643%, 100%)" offset="0.597656"/><stop stop-opacity="1" stop-color="rgb(0%, 58.047485%, 100%)" offset="0.601562"/><stop stop-opacity="1" stop-color="rgb(0%, 58.598328%, 100%)" offset="0.605469"/><stop stop-opacity="1" stop-color="rgb(0%, 59.150696%, 100%)" offset="0.609375"/><stop stop-opacity="1" stop-color="rgb(0%, 59.701538%, 100%)" offset="0.613281"/><stop stop-opacity="1" stop-color="rgb(0%, 60.25238%, 100%)" offset="0.617188"/><stop stop-opacity="1" stop-color="rgb(0%, 60.803223%, 100%)" offset="0.621094"/><stop stop-opacity="1" stop-color="rgb(0%, 61.355591%, 100%)" offset="0.625"/><stop stop-opacity="1" stop-color="rgb(0%, 61.906433%, 100%)" offset="0.628906"/><stop stop-opacity="1" stop-color="rgb(0%, 62.458801%, 100%)" offset="0.632812"/><stop stop-opacity="1" stop-color="rgb(0%, 63.009644%, 100%)" offset="0.636719"/><stop stop-opacity="1" stop-color="rgb(0%, 63.560486%, 100%)" offset="0.640625"/><stop stop-opacity="1" stop-color="rgb(0%, 64.111328%, 100%)" offset="0.644531"/><stop stop-opacity="1" stop-color="rgb(0%, 64.663696%, 100%)" offset="0.648438"/><stop stop-opacity="1" stop-color="rgb(0%, 65.214539%, 100%)" offset="0.652344"/><stop stop-opacity="1" stop-color="rgb(0%, 65.765381%, 100%)" offset="0.65625"/><stop stop-opacity="1" stop-color="rgb(0%, 66.316223%, 100%)" offset="0.660156"/><stop stop-opacity="1" stop-color="rgb(0%, 66.868591%, 100%)" offset="0.664062"/><stop stop-opacity="1" stop-color="rgb(0%, 67.419434%, 100%)" offset="0.667969"/><stop stop-opacity="1" stop-color="rgb(0%, 67.971802%, 100%)" offset="0.671875"/><stop stop-opacity="1" stop-color="rgb(0%, 68.522644%, 100%)" offset="0.675781"/><stop stop-opacity="1" stop-color="rgb(0%, 69.073486%, 100%)" offset="0.679687"/><stop stop-opacity="1" stop-color="rgb(0%, 69.624329%, 100%)" offset="0.683594"/><stop stop-opacity="1" stop-color="rgb(0%, 70.176697%, 100%)" offset="0.6875"/><stop stop-opacity="1" stop-color="rgb(0%, 70.727539%, 100%)" offset="0.691406"/><stop stop-opacity="1" stop-color="rgb(0%, 71.278381%, 100%)" offset="0.695312"/><stop stop-opacity="1" stop-color="rgb(0%, 71.829224%, 100%)" offset="0.699219"/><stop stop-opacity="1" stop-color="rgb(0%, 72.381592%, 100%)" offset="0.703125"/><stop stop-opacity="1" stop-color="rgb(0%, 72.932434%, 100%)" offset="0.707031"/><stop stop-opacity="1" stop-color="rgb(0%, 73.484802%, 100%)" offset="0.710937"/><stop stop-opacity="1" stop-color="rgb(0%, 74.035645%, 100%)" offset="0.714844"/><stop stop-opacity="1" stop-color="rgb(0%, 74.586487%, 100%)" offset="0.71875"/><stop stop-opacity="1" stop-color="rgb(0%, 75.137329%, 100%)" offset="0.722656"/><stop stop-opacity="1" stop-color="rgb(0%, 75.689697%, 100%)" offset="0.726562"/><stop stop-opacity="1" stop-color="rgb(0%, 75.894165%, 100%)" offset="0.730469"/><stop stop-opacity="1" stop-color="rgb(0%, 76.098633%, 100%)" offset="0.734375"/><stop stop-opacity="1" stop-color="rgb(0%, 76.098633%, 100%)" offset="0.75"/><stop stop-opacity="1" stop-color="rgb(0%, 76.098633%, 100%)" offset="1"/></linearGradient></defs><g clip-path="url(#af528df501)"><g clip-path="url(#9cfde91f4f)"><g clip-path="url(#31f0e99745)"><g clip-path="url(#ad9ce26d9a)"><path fill="url(#b05f0acb9f)" d="M 20.96875 35.613281 L 21.066406 81.019531 L 49.839844 81.078125 L 49.742188 35.675781 Z M 20.96875 35.613281 " fill-rule="nonzero"/></g></g></g></g><g clip-path="url(#8ee24e061b)"><g clip-path="url(#eec3c4b6cc)"><g clip-path="url(#dd7660d1ae)"><g clip-path="url(#a82fb22245)"><path fill="url(#482a316991)" d="M 65.167969 35.664062 L 65.152344 52.773438 L 89.242188 52.75 L 89.257812 35.636719 Z M 65.167969 35.664062 " fill-rule="nonzero"/></g></g></g></g><g clip-path="url(#ad0ce16fd2)"><g clip-path="url(#ed8ee5a46c)"><g clip-path="url(#e027282d2c)"><g clip-path="url(#031c49d966)"><path fill="url(#c62c7f266c)" d="M 54.9375 92.316406 L 101.621094 45.632812 L 54.9375 -1.054688 L 8.25 45.632812 Z M 54.9375 92.316406 " fill-rule="nonzero"/></g></g></g></g><g fill="#000000" fill-opacity="1"><g transform="translate(101.418823, 63.227584)"><g><path d="M 21.828125 -33.359375 L 25.296875 -33.359375 L 25.296875 0 L 21.828125 0 L 21.828125 -3.46875 C 20.867188 -2.269531 19.660156 -1.3125 18.203125 -0.59375 C 16.753906 0.113281 15.179688 0.46875 13.484375 0.46875 C 11.410156 0.46875 9.476562 -0.046875 7.6875 -1.078125 C 5.894531 -2.117188 4.472656 -3.539062 3.421875 -5.34375 C 2.378906 -7.15625 1.859375 -9.15625 1.859375 -11.34375 C 1.859375 -13.539062 2.378906 -15.539062 3.421875 -17.34375 C 4.472656 -19.15625 5.894531 -20.578125 7.6875 -21.609375 C 9.476562 -22.640625 11.410156 -23.15625 13.484375 -23.15625 C 15.179688 -23.15625 16.753906 -22.800781 18.203125 -22.09375 C 19.660156 -21.382812 20.867188 -20.425781 21.828125 -19.21875 Z M 13.765625 -2.78125 C 15.273438 -2.78125 16.660156 -3.15625 17.921875 -3.90625 C 19.191406 -4.664062 20.195312 -5.691406 20.9375 -6.984375 C 21.675781 -8.285156 22.046875 -9.738281 22.046875 -11.34375 C 22.046875 -12.957031 21.675781 -14.410156 20.9375 -15.703125 C 20.195312 -17.003906 19.191406 -18.03125 17.921875 -18.78125 C 16.660156 -19.539062 15.273438 -19.921875 13.765625 -19.921875 C 12.242188 -19.921875 10.847656 -19.539062 9.578125 -18.78125 C 8.316406 -18.03125 7.316406 -17.003906 6.578125 -15.703125 C 5.835938 -14.410156 5.46875 -12.957031 5.46875 -11.34375 C 5.46875 -9.738281 5.835938 -8.285156 6.578125 -6.984375 C 7.316406 -5.691406 8.316406 -4.664062 9.578125 -3.90625 C 10.847656 -3.15625 12.242188 -2.78125 13.765625 -2.78125 Z M 13.765625 -2.78125 "/></g></g></g><g fill="#000000" fill-opacity="1"><g transform="translate(130.416561, 63.227584)"><g><path d="M 12.28125 -30.109375 C 11.132812 -30.109375 10.226562 -29.785156 9.5625 -29.140625 C 8.90625 -28.492188 8.578125 -27.582031 8.578125 -26.40625 L 8.578125 -22.703125 L 14.359375 -22.703125 L 14.359375 -19.546875 L 8.578125 -19.546875 L 8.578125 0 L 5.09375 0 L 5.09375 -19.546875 L 1.390625 -19.546875 L 1.390625 -22.703125 L 5.09375 -22.703125 L 5.09375 -26.640625 C 5.09375 -28.617188 5.734375 -30.234375 7.015625 -31.484375 C 8.296875 -32.734375 9.972656 -33.359375 12.046875 -33.359375 L 14.359375 -33.359375 L 14.359375 -30.109375 Z M 12.28125 -30.109375 "/></g></g></g><g fill="#000000" fill-opacity="1"><g transform="translate(145.702916, 63.227584)"><g><path d="M 14.453125 -11.90625 L 23.125 0 L 18.8125 0 L 12.234375 -9.359375 L 5.515625 0 L 1.390625 0 L 10 -11.765625 L 2.03125 -22.703125 L 6.34375 -22.703125 L 12.28125 -14.171875 L 18.390625 -22.703125 L 22.5625 -22.703125 Z M 14.453125 -11.90625 "/></g></g></g></svg>